<svg width="30" height="35" viewBox="0 0 30 35" fill="none" xmlns="http://www.w3.org/2000/svg">
<g clip-path="url(#clip0_51_2)">
<g filter="url(#filter0_d_51_2)">
<g filter="url(#filter1_d_51_2)">
<path d="M7.37988 17.2709L14.7609 -0.000244141L22.1418 17.2709H7.37988Z" fill="#A4DCEC"/>
<path d="M22.1418 17.271L14.7609 34.5421L7.37988 17.271H22.1418Z" fill="#2778A0"/>
<path d="M29.5226 8.27776L22.1416 17.2709L14.7607 -0.000244141L29.5226 8.27776Z" fill="#2778A0"/>
<path d="M14.7606 -0.000244141L7.37965 17.2708L0.000244141 8.27765L14.7606 -0.000244141Z" fill="#2778A0"/>
<path d="M0 26.2641L7.3795 17.271L14.7604 34.5421L0 26.2641Z" fill="#A4DCEC"/>
<path d="M29.5226 26.2641L22.1416 17.271L14.7607 34.5421L29.5226 26.2641Z" fill="#A4DCEC"/>
<path d="M0 8.27759V26.2638L7.3795 17.2707L0 8.27759Z" fill="#134056"/>
<path d="M29.5227 8.27759L22.1418 17.2707L29.5227 26.2638V8.27759Z" fill="#134056"/>
</g>
</g>
</g>
<defs>
<filter id="filter0_d_51_2" x="-3.9534" y="-0.000254154" width="37.4295" height="42.449" filterUnits="userSpaceOnUse" color-interpolation-filters="sRGB">
<feFlood flood-opacity="0" result="BackgroundImageFix"/>
<feColorMatrix in="SourceAlpha" type="matrix" values="0 0 0 0 0 0 0 0 0 0 0 0 0 0 0 0 0 0 127 0" result="hardAlpha"/>
<feOffset dy="3.95339"/>
<feGaussianBlur stdDeviation="1.9767"/>
<feComposite in2="hardAlpha" operator="out"/>
<feColorMatrix type="matrix" values="0 0 0 0 0 0 0 0 0 0 0 0 0 0 0 0 0 0 0.25 0"/>
<feBlend mode="normal" in2="BackgroundImageFix" result="effect1_dropShadow_51_2"/>
<feBlend mode="normal" in="SourceGraphic" in2="effect1_dropShadow_51_2" result="shape"/>
</filter>
<filter id="filter1_d_51_2" x="-42.499" y="-42.4992" width="128.358" height="133.377" filterUnits="userSpaceOnUse" color-interpolation-filters="sRGB">
<feFlood flood-opacity="0" result="BackgroundImageFix"/>
<feColorMatrix in="SourceAlpha" type="matrix" values="0 0 0 0 0 0 0 0 0 0 0 0 0 0 0 0 0 0 127 0" result="hardAlpha"/>
<feOffset dx="6.91844" dy="6.91844"/>
<feGaussianBlur stdDeviation="24.7087"/>
<feColorMatrix type="matrix" values="0 0 0 0 0.490196 0 0 0 0 0 0 0 0 0 0 0 0 0 0.15 0"/>
<feBlend mode="normal" in2="BackgroundImageFix" result="effect1_dropShadow_51_2"/>
<feBlend mode="normal" in="SourceGraphic" in2="effect1_dropShadow_51_2" result="shape"/>
</filter>
<clipPath id="clip0_51_2">
<rect width="30" height="35" fill="white"/>
</clipPath>
</defs>
</svg>
