<svg width="129" height="134" viewBox="0 0 129 134" fill="none" xmlns="http://www.w3.org/2000/svg">
<g filter="url(#filter0_d_1_19)">
<g filter="url(#filter1_d_1_19)">
<path d="M50.3797 60.2709L57.7607 42.9998L65.1416 60.2709H50.3797Z" fill="#A4DCEC"/>
<path d="M65.1416 60.271L57.7607 77.5421L50.3797 60.271H65.1416Z" fill="#2778A0"/>
<path d="M72.5226 51.2778L65.1416 60.2709L57.7607 42.9998L72.5226 51.2778Z" fill="#2778A0"/>
<path d="M57.7606 42.9998L50.3796 60.2708L43.0002 51.2777L57.7606 42.9998Z" fill="#2778A0"/>
<path d="M42.9999 69.2641L50.3794 60.271L57.7603 77.5421L42.9999 69.2641Z" fill="#A4DCEC"/>
<path d="M72.5226 69.2641L65.1416 60.271L57.7607 77.5421L72.5226 69.2641Z" fill="#A4DCEC"/>
<path d="M42.9999 51.2777V69.2639L50.3794 60.2708L42.9999 51.2777Z" fill="#134056"/>
<path d="M72.5226 51.2777L65.1417 60.2708L72.5226 69.2639V51.2777Z" fill="#134056"/>
</g>
</g>
<defs>
<filter id="filter0_d_1_19" x="39.0465" y="42.9998" width="37.4295" height="42.4491" filterUnits="userSpaceOnUse" color-interpolation-filters="sRGB">
<feFlood flood-opacity="0" result="BackgroundImageFix"/>
<feColorMatrix in="SourceAlpha" type="matrix" values="0 0 0 0 0 0 0 0 0 0 0 0 0 0 0 0 0 0 127 0" result="hardAlpha"/>
<feOffset dy="3.95339"/>
<feGaussianBlur stdDeviation="1.9767"/>
<feComposite in2="hardAlpha" operator="out"/>
<feColorMatrix type="matrix" values="0 0 0 0 0 0 0 0 0 0 0 0 0 0 0 0 0 0 0.25 0"/>
<feBlend mode="normal" in2="BackgroundImageFix" result="effect1_dropShadow_1_19"/>
<feBlend mode="normal" in="SourceGraphic" in2="effect1_dropShadow_1_19" result="shape"/>
</filter>
<filter id="filter1_d_1_19" x="0.500945" y="0.500766" width="128.358" height="133.377" filterUnits="userSpaceOnUse" color-interpolation-filters="sRGB">
<feFlood flood-opacity="0" result="BackgroundImageFix"/>
<feColorMatrix in="SourceAlpha" type="matrix" values="0 0 0 0 0 0 0 0 0 0 0 0 0 0 0 0 0 0 127 0" result="hardAlpha"/>
<feOffset dx="6.91844" dy="6.91844"/>
<feGaussianBlur stdDeviation="24.7087"/>
<feColorMatrix type="matrix" values="0 0 0 0 0.490196 0 0 0 0 0 0 0 0 0 0 0 0 0 0.15 0"/>
<feBlend mode="normal" in2="BackgroundImageFix" result="effect1_dropShadow_1_19"/>
<feBlend mode="normal" in="SourceGraphic" in2="effect1_dropShadow_1_19" result="shape"/>
</filter>
</defs>
</svg>
