<svg width="52" height="52" viewBox="0 0 52 52" fill="none" xmlns="http://www.w3.org/2000/svg">
<path d="M47.125 13H42.25V11.375C42.25 10.513 41.9076 9.6864 41.2981 9.0769C40.6886 8.46741 39.862 8.125 39 8.125H13C12.138 8.125 11.3114 8.46741 10.7019 9.0769C10.0924 9.6864 9.75 10.513 9.75 11.375V13H4.875C4.01305 13 3.1864 13.3424 2.5769 13.9519C1.96741 14.5614 1.625 15.388 1.625 16.25V19.5C1.625 21.6549 2.48102 23.7215 4.00476 25.2452C4.75923 25.9997 5.65493 26.5982 6.6407 27.0065C7.62647 27.4148 8.68301 27.625 9.75 27.625H10.4914C11.4486 30.6585 13.2737 33.345 15.7412 35.3525C18.2086 37.3601 21.2102 38.6006 24.375 38.9208V43.875H19.5C19.069 43.875 18.6557 44.0462 18.351 44.351C18.0462 44.6557 17.875 45.069 17.875 45.5C17.875 45.931 18.0462 46.3443 18.351 46.649C18.6557 46.9538 19.069 47.125 19.5 47.125H32.5C32.931 47.125 33.3443 46.9538 33.649 46.649C33.9538 46.3443 34.125 45.931 34.125 45.5C34.125 45.069 33.9538 44.6557 33.649 44.351C33.3443 44.0462 32.931 43.875 32.5 43.875H27.625V38.9147C34.1128 38.2586 39.4956 33.7066 41.4538 27.625H42.25C44.4049 27.625 46.4715 26.769 47.9952 25.2452C49.519 23.7215 50.375 21.6549 50.375 19.5V16.25C50.375 15.388 50.0326 14.5614 49.4231 13.9519C48.8136 13.3424 47.987 13 47.125 13ZM9.75 24.375C8.45707 24.375 7.21709 23.8614 6.30285 22.9471C5.38861 22.0329 4.875 20.7929 4.875 19.5V16.25H9.75V22.75C9.75 23.2917 9.77641 23.8333 9.82922 24.375H9.75ZM39 22.5672C39 29.7822 33.213 35.6972 26.0995 35.75H26C22.5522 35.75 19.2456 34.3804 16.8076 31.9424C14.3696 29.5044 13 26.1978 13 22.75V11.375H39V22.5672ZM47.125 19.5C47.125 20.7929 46.6114 22.0329 45.6971 22.9471C44.7829 23.8614 43.5429 24.375 42.25 24.375H42.1484C42.2151 23.7747 42.249 23.1712 42.25 22.5672V16.25H47.125V19.5Z" fill="#D6C3F8"/>
</svg>
