<svg width="50" height="50" viewBox="0 0 50 50" fill="none" xmlns="http://www.w3.org/2000/svg">
<path d="M46.092 48.2142V32.6214C46.092 30.4356 44.3205 28.6606 42.1312 28.6606H7.86339C5.67768 28.6606 3.90625 30.4356 3.90625 32.6214V48.2142M24.9991 20.2392V28.6606M3.90625 36.4714H46.0955M35.842 1.78564H14.1527C13.4101 1.78564 12.6979 2.08064 12.1728 2.60575C11.6477 3.13085 11.3527 3.84304 11.3527 4.58564V17.4392C11.3527 18.9856 12.6062 20.2392 14.1527 20.2392H35.842C36.2097 20.2392 36.5738 20.1668 36.9135 20.0261C37.2532 19.8854 37.5619 19.6791 37.8219 19.4191C38.0819 19.1591 38.2881 18.8504 38.4288 18.5107C38.5695 18.171 38.642 17.8069 38.642 17.4392V4.58564C38.642 4.21794 38.5695 3.85384 38.4288 3.51413C38.2881 3.17442 38.0819 2.86575 37.8219 2.60575C37.5619 2.34574 37.2532 2.13949 36.9135 1.99878C36.5738 1.85807 36.2097 1.78564 35.842 1.78564Z" stroke="#D6C3F8" strokeWidth="3" strokeLinecap="round" strokeLinejoin="round"/>
</svg>
