<svg width="50" height="50" viewBox="0 0 50 50" fill="none" xmlns="http://www.w3.org/2000/svg">
<path d="M1.83398 1.9043V9.6832C6.19766 10.2283 9.79463 12.1213 13.2263 14.2883L10.8093 16.2476L20.749 21.3164L18.0205 10.4004L15.4907 12.4512C13.5156 8.54395 11.3132 4.86035 8.38623 1.9043H1.83398ZM28.9215 1.9043C27.3957 4.71338 26.0692 7.58066 24.8414 10.5133L21.8932 9.8877L24.4264 20.8496L30.9752 11.8164L28.0854 11.2031C31.3363 7.80986 34.6866 4.58271 38.6383 1.9043H28.9215ZM48.2086 11.0688C44.4988 11.3111 41.1734 12.9903 37.9518 15.0635L36.734 11.8867L28.9154 19.9769L40.0574 20.5566L38.7635 17.1813C41.9119 17.0901 45.0602 17.3598 48.2086 19.2687V11.0688ZM29.2604 23.5717C28.7447 23.5834 28.2633 23.8076 27.6062 24.5087L26.9653 25.1892L26.3 24.5329C25.5786 23.822 25.0094 23.6257 24.4323 23.6511C23.8554 23.6765 23.177 23.9799 22.4182 24.594L21.8109 25.0853L21.2342 24.5604C20.365 23.7741 19.6243 23.5411 18.9148 23.5777C18.3984 23.6045 17.8626 23.799 17.3279 24.1393L21.3287 31.3354C22.8379 32.2584 25.9218 32.6056 28.0426 31.5368L31.9092 24.3743C31.1758 24.0753 30.5166 23.7687 29.9469 23.6511C29.7406 23.6084 29.5492 23.5772 29.3639 23.5717C29.3294 23.5708 29.2949 23.5708 29.2604 23.5717ZM20.4742 32.9652C18.713 34.2096 17.2988 36.3557 16.7511 39.4989C16.2203 42.5454 17.0565 44.6029 18.5364 46.0052C20.0164 47.4075 22.2378 48.1279 24.4935 48.0986C26.7493 48.0693 28.9989 47.2871 30.5115 45.8588C32.0242 44.4304 32.8797 42.3992 32.3945 39.4928C31.8929 36.4892 30.5977 34.4002 28.958 33.1359C26.1766 34.6063 22.6988 34.2938 20.4742 32.965V32.9652Z" fill="#D6C3F8"/>
</svg>
